<?xml version="1.0" standalone="no"?>
<!DOCTYPE svg PUBLIC "-//W3C//DTD SVG 20010904//EN"
 "http://www.w3.org/TR/2001/REC-SVG-20010904/DTD/svg10.dtd">
<svg version="1.0" xmlns="http://www.w3.org/2000/svg"
 width="1811.000000pt" height="1806.000000pt" viewBox="0 0 1811.000000 1806.000000"
 preserveAspectRatio="xMidYMid meet">

<g transform="translate(0.000000,1806.000000) scale(0.100000,-0.100000)"
fill="#000000" stroke="none">
<path d="M9047 16970 c-88 -8 -106 -16 -160 -63 -29 -26 -46 -34 -142 -63 -33
-10 -67 -24 -76 -31 -8 -7 -24 -13 -33 -13 -10 0 -36 -16 -59 -35 -26 -22 -47
-33 -58 -30 -10 3 -20 1 -24 -5 -3 -5 -21 -10 -40 -10 -18 0 -40 -6 -47 -12
-7 -7 -22 -14 -33 -16 -11 -2 -47 -14 -80 -28 -33 -14 -69 -29 -80 -34 -84
-34 -113 -48 -153 -77 -26 -18 -51 -33 -55 -33 -4 0 -20 -8 -35 -18 -15 -11
-45 -31 -68 -46 -23 -15 -47 -38 -54 -51 -7 -14 -19 -25 -27 -25 -7 0 -13 -4
-13 -10 0 -12 -53 -40 -77 -40 -20 0 -106 -77 -138 -124 -38 -55 -67 -86 -80
-86 -8 0 -18 -6 -22 -13 -4 -7 -26 -26 -48 -42 -40 -29 -113 -94 -143 -129
-31 -34 -104 -86 -122 -86 -5 0 -24 -13 -42 -28 -18 -15 -55 -42 -83 -60 -27
-17 -63 -45 -79 -62 -15 -17 -40 -37 -55 -45 -14 -7 -38 -26 -52 -42 -15 -15
-53 -44 -85 -62 -33 -19 -73 -49 -90 -65 -17 -17 -41 -39 -55 -49 -50 -37
-135 -102 -151 -117 -19 -17 -88 -119 -88 -129 0 -4 -11 -18 -25 -31 -14 -13
-25 -29 -25 -35 0 -7 -12 -25 -27 -41 -29 -30 -38 -44 -86 -135 -34 -63 -51
-212 -41 -351 6 -78 5 -89 -15 -116 -12 -18 -34 -33 -52 -37 -32 -7 -73 -60
-64 -83 9 -26 -26 -101 -71 -148 -25 -27 -63 -68 -85 -91 -21 -23 -39 -48 -39
-56 0 -8 -14 -33 -31 -57 -17 -23 -38 -65 -46 -94 -8 -28 -36 -94 -60 -146
-48 -99 -55 -122 -78 -230 -7 -36 -20 -90 -30 -120 -49 -162 -83 -440 -66
-545 6 -38 6 -89 0 -140 -8 -67 -30 -592 -31 -730 0 -22 -7 -118 -15 -212 -19
-208 -15 -275 15 -304 26 -24 27 -28 5 -74 -13 -26 -14 -40 -6 -57 28 -61 33
-87 39 -196 4 -70 11 -120 18 -124 37 -24 37 -24 26 -52 -6 -18 -7 -47 -1 -84
10 -62 -3 -92 -40 -92 -27 0 -33 -18 -7 -22 26 -4 56 -52 58 -93 1 -16 5 -39
9 -50 7 -18 9 -18 25 7 11 17 15 35 11 48 -4 12 -2 26 3 33 11 14 24 94 24
147 0 19 6 105 14 190 7 85 18 222 24 304 8 101 16 156 26 172 9 13 14 27 11
31 -17 29 34 202 67 226 8 6 8 10 0 13 -8 3 -8 22 -2 62 5 31 7 71 5 87 -3 20
1 38 12 51 10 12 23 48 30 80 7 33 19 72 27 87 8 16 14 57 14 92 0 43 5 66 15
75 8 7 15 21 15 32 0 11 5 29 11 40 7 12 11 59 10 108 -2 94 8 115 59 122 22
3 25 8 25 46 0 36 3 42 21 42 36 0 44 20 44 112 0 52 4 88 10 88 6 0 10 18 10
40 0 27 -4 40 -14 40 -16 0 -30 109 -20 169 6 35 12 43 45 58 21 10 42 28 48
41 11 22 20 26 54 23 9 -1 17 4 17 13 0 9 4 16 9 16 6 0 11 24 13 52 2 44 6
53 23 56 11 2 30 14 43 25 19 18 20 22 8 27 -14 5 -14 8 -1 34 9 16 13 36 11
45 -7 21 -8 171 -2 246 4 60 13 85 52 140 11 17 29 55 38 85 10 30 26 64 36
75 9 11 20 32 24 47 3 15 13 33 21 42 8 8 15 18 15 22 0 7 10 18 81 94 16 17
29 35 29 40 0 17 107 117 140 130 19 7 44 20 55 27 11 7 29 13 40 13 19 0 34
19 51 63 4 11 17 17 41 17 26 0 43 9 75 41 52 51 107 89 131 89 10 0 20 7 23
15 3 8 35 28 70 45 35 16 64 34 64 40 0 5 9 10 21 10 11 0 27 6 34 14 8 7 32
16 55 20 23 4 60 16 81 27 22 11 44 17 50 13 6 -3 18 0 27 8 9 8 38 25 65 38
26 13 47 26 47 31 0 9 63 17 230 29 74 5 156 13 181 18 35 7 53 5 74 -5 17 -9
61 -15 116 -16 76 -2 91 1 108 18 19 19 28 19 133 13 222 -15 241 -14 297 5
30 10 65 16 79 12 13 -3 29 -2 35 3 25 18 96 35 109 25 7 -5 27 -10 44 -12 27
-2 34 2 45 28 12 27 19 31 51 31 20 0 48 -4 62 -10 27 -10 76 4 76 22 0 13 30
9 46 -7 9 -8 19 -15 24 -15 5 0 15 7 24 15 17 18 122 21 128 4 2 -6 15 0 28
15 27 28 70 35 70 12 0 -28 57 -63 112 -70 40 -5 62 -15 85 -36 20 -19 47 -32
75 -36 43 -6 89 -23 140 -50 14 -8 40 -14 56 -14 46 0 85 -18 78 -35 -3 -10 1
-15 12 -15 9 0 29 -11 44 -25 15 -14 50 -31 78 -38 28 -7 48 -16 45 -19 -3 -3
23 -8 57 -12 34 -3 80 -15 101 -27 22 -11 42 -18 45 -15 2 3 14 -1 26 -9 11
-8 31 -15 43 -15 13 0 23 -4 23 -10 0 -5 12 -10 28 -10 42 -1 102 -26 119 -49
8 -12 30 -24 54 -27 21 -4 39 -10 39 -14 0 -5 14 -12 32 -15 18 -4 55 -20 83
-35 27 -15 75 -35 105 -45 30 -10 60 -21 65 -25 9 -7 23 -10 102 -24 47 -9 65
-19 74 -42 5 -14 13 -22 19 -19 5 3 8 0 5 -7 -2 -8 28 -34 73 -63 42 -27 96
-65 120 -82 24 -18 50 -33 57 -33 8 0 24 -15 37 -32 42 -61 114 -124 154 -136
28 -8 56 -30 98 -77 47 -51 65 -65 88 -65 36 0 68 -16 68 -34 0 -14 73 -76 89
-76 6 0 11 -7 11 -15 0 -9 7 -18 15 -21 9 -4 15 -19 15 -38 0 -17 11 -51 25
-75 14 -23 25 -52 25 -62 0 -10 13 -32 30 -47 17 -16 34 -48 42 -75 12 -46 13
-47 50 -47 34 0 38 -3 38 -25 0 -14 8 -35 19 -46 10 -11 21 -33 25 -49 3 -19
16 -35 36 -45 16 -8 38 -28 47 -43 10 -15 26 -33 35 -40 10 -7 18 -21 18 -30
0 -10 9 -34 20 -55 11 -20 20 -56 20 -79 1 -54 25 -167 39 -181 7 -7 15 -6 26
3 10 9 19 10 26 3 5 -5 12 -104 14 -229 6 -274 21 -500 36 -537 9 -21 9 -34 0
-53 -6 -14 -11 -34 -11 -46 0 -16 4 -19 24 -14 20 5 25 2 29 -16 l4 -23 2 23
c1 30 51 32 51 2 0 -11 5 -20 10 -20 6 0 10 -31 10 -72 0 -51 3 -68 10 -58 13
20 13 227 0 235 -18 11 -11 41 16 66 22 21 25 30 20 69 -19 158 -27 288 -22
375 14 235 14 314 0 413 -8 57 -18 111 -23 120 -12 23 -58 216 -67 277 -3 28
-10 55 -14 60 -13 16 -36 103 -79 295 -8 36 -34 96 -72 163 -22 39 -52 120
-110 292 -16 49 -36 96 -43 105 -20 22 -81 140 -95 181 -6 19 -27 60 -47 90
-29 44 -34 61 -30 89 3 22 0 47 -9 64 -8 15 -15 36 -15 45 0 9 -14 36 -30 61
-16 25 -30 51 -30 58 0 6 -4 12 -9 12 -5 0 -18 15 -28 33 -11 17 -38 64 -61
102 -34 59 -41 78 -41 123 1 47 -4 61 -48 124 -50 75 -56 85 -87 139 -24 43
-159 173 -213 205 -24 15 -63 54 -90 92 -68 94 -67 89 -48 129 16 34 16 36 -6
59 -12 13 -32 26 -43 30 -61 17 -104 49 -115 84 -11 38 -24 47 -121 86 -25 10
-47 21 -50 24 -3 3 -45 19 -95 35 -102 32 -141 50 -170 75 -11 10 -53 35 -94
56 -40 21 -83 51 -95 67 -29 40 -60 53 -139 62 -66 6 -68 8 -86 45 -10 21 -23
44 -29 51 -7 8 -23 29 -38 47 -16 20 -35 32 -49 32 -13 0 -26 4 -30 9 -3 5
-31 13 -63 17 -31 3 -68 12 -82 19 -70 36 -173 75 -198 75 -16 0 -32 3 -36 7
-4 4 -39 13 -77 19 -38 7 -81 21 -96 31 -14 10 -34 23 -45 29 -11 7 -25 17
-31 23 -6 6 -21 11 -34 11 -13 0 -42 6 -64 13 -31 9 -42 18 -46 38 -8 42 -57
50 -317 54 -127 1 -249 5 -271 8 -22 3 -80 1 -128 -3z m496 -427 c-13 -2 -33
-2 -45 0 -13 2 -3 4 22 4 25 0 35 -2 23 -4z m27 -1343 c0 -5 -5 -10 -11 -10
-5 0 -7 5 -4 10 3 6 8 10 11 10 2 0 4 -4 4 -10z m-3304 -1719 c-13 -20 -26
-11 -26 16 0 25 1 26 16 11 9 -9 13 -21 10 -27z m-186 -361 c0 -11 -4 -20 -9
-20 -5 0 -7 9 -4 20 3 11 7 20 9 20 2 0 4 -9 4 -20z m6800 -589 c0 -4 -5 -23
-12 -41 -10 -30 -12 -32 -19 -14 -15 37 -10 64 11 64 11 0 20 -4 20 -9z m-3
-453 c-3 -7 -5 -2 -5 12 0 14 2 19 5 13 2 -7 2 -19 0 -25z"/>
<path d="M6320 13300 c0 -5 -7 -10 -15 -10 -21 0 -19 -28 3 -33 10 -2 -3 -10
-33 -19 -54 -16 -65 -38 -25 -49 24 -7 24 -7 3 -8 -20 -1 -23 -6 -22 -43 1
-24 3 -35 6 -25 3 12 15 17 40 17 46 0 72 31 73 88 0 32 4 42 17 42 14 0 12 4
-7 25 -25 26 -40 32 -40 15z"/>
<path d="M6073 12585 c0 -27 2 -38 4 -22 2 15 2 37 0 50 -2 12 -4 0 -4 -28z"/>
<path d="M6111 12419 c-18 -53 -11 -129 13 -129 27 1 37 19 37 74 1 81 -29
114 -50 55z"/>
<path d="M7050 12124 c-41 -14 -49 -30 -24 -49 14 -11 15 -14 5 -15 -21 0 19
-29 40 -30 21 0 31 -24 23 -56 -5 -18 -2 -24 10 -24 9 0 32 -15 52 -34 19 -18
54 -39 77 -46 23 -8 55 -20 71 -28 36 -18 259 -52 341 -52 43 0 67 -6 84 -19
14 -10 30 -17 37 -14 7 2 15 0 19 -6 3 -6 35 -11 70 -11 42 0 65 -4 68 -12 3
-10 9 -10 26 0 11 6 38 12 58 12 30 0 47 8 78 37 24 22 35 38 27 41 -6 2 -12
9 -12 16 0 7 -15 30 -34 52 -33 38 -34 39 -100 36 -53 -3 -67 0 -72 13 -11 28
-62 47 -121 44 -49 -2 -57 0 -64 18 -5 14 -22 26 -46 32 -52 15 -75 14 -101
-5 -31 -22 -66 -15 -70 15 -3 19 -8 22 -30 18 -49 -10 -169 -48 -227 -72 -16
-7 -49 -17 -72 -22 -35 -8 -43 -8 -43 3 0 10 14 14 43 14 l42 1 -32 14 c-37
16 -53 42 -53 87 0 44 -23 58 -70 42z"/>
<path d="M6865 12050 c3 -5 8 -10 11 -10 2 0 4 5 4 10 0 6 -5 10 -11 10 -5 0
-7 -4 -4 -10z"/>
<path d="M6797 11974 c6 -16 19 -18 27 -5 3 5 -3 11 -13 14 -14 3 -18 1 -14
-9z"/>
<path d="M6677 11953 c-3 -5 -7 -21 -8 -38 -4 -28 -1 -30 31 -33 32 -3 37 0
47 29 7 18 10 36 7 40 -6 11 -71 12 -77 2z"/>
<path d="M6968 11938 c-75 -20 -54 -77 28 -78 24 0 74 39 74 58 0 7 -7 12 -15
12 -8 0 -15 5 -15 10 0 12 -22 11 -72 -2z"/>
<path d="M10450 11886 c0 -9 8 -12 25 -8 14 2 25 8 25 13 0 5 -11 9 -25 9 -14
0 -25 -6 -25 -14z"/>
<path d="M10565 11870 c-22 -11 -46 -19 -53 -20 -26 0 -112 -69 -112 -89 0 -5
-7 -11 -15 -15 -8 -3 -15 -14 -15 -24 0 -32 84 -50 176 -39 67 9 82 7 111 -8
38 -21 31 -21 273 -6 96 6 200 17 230 26 30 8 70 15 90 16 51 1 28 6 -89 20
-67 7 -98 15 -90 20 11 8 9 13 -10 29 -13 11 -31 20 -40 20 -9 0 -21 4 -26 9
-27 23 -120 44 -229 51 -77 4 -121 11 -124 18 -5 17 -31 14 -77 -8z m15 -69
c0 -6 -5 -13 -10 -16 -14 -9 -52 4 -45 16 8 12 55 12 55 0z m-90 -31 c-8 -5
-22 -9 -30 -9 -10 0 -8 3 5 9 27 12 43 12 25 0z"/>
<path d="M10400 11860 c0 -5 4 -10 9 -10 6 0 13 5 16 10 3 6 -1 10 -9 10 -9 0
-16 -4 -16 -10z"/>
<path d="M6655 11795 c-11 -14 -25 -25 -31 -25 -7 0 -14 -7 -18 -15 -4 -10 1
-15 14 -15 11 0 20 -5 20 -10 0 -12 41 9 53 28 11 17 25 15 30 -5 3 -10 5 1 6
25 1 40 -1 42 -26 42 -17 -1 -36 -11 -48 -25z"/>
<path d="M12731 11666 c-14 -26 -8 -46 14 -46 14 0 29 45 20 60 -10 16 -21 11
-34 -14z"/>
<path d="M6560 11615 c0 -11 11 -15 40 -15 29 0 40 4 40 15 0 11 -11 15 -40
15 -29 0 -40 -4 -40 -15z"/>
<path d="M12806 11599 c-6 -31 14 -76 27 -62 9 8 9 56 1 77 -10 25 -21 19 -28
-15z"/>
<path d="M12958 11603 c-5 -46 3 -94 15 -86 6 4 8 0 4 -9 -3 -9 0 -24 7 -33
12 -17 13 -17 20 1 11 30 -4 121 -24 139 -17 16 -19 15 -22 -12z"/>
<path d="M6305 11570 c3 -5 8 -10 11 -10 2 0 4 5 4 10 0 6 -5 10 -11 10 -5 0
-7 -4 -4 -10z"/>
<path d="M8430 11540 c0 -22 5 -40 10 -40 6 0 10 18 10 40 0 22 -4 40 -10 40
-5 0 -10 -18 -10 -40z"/>
<path d="M7809 11535 c-3 -2 -52 -7 -109 -10 -58 -4 -127 -9 -155 -11 -27 -3
-122 -8 -210 -13 -88 -5 -176 -14 -195 -20 -19 -6 -55 -11 -80 -11 -25 0 -50
-4 -56 -9 -5 -5 -35 -12 -66 -16 -56 -6 -58 -6 -58 18 0 13 -2 26 -6 29 -8 8
-124 -50 -124 -62 0 -5 -15 -10 -33 -10 -22 0 -41 -8 -53 -21 -19 -21 -19 -21
-24 -1 -5 19 -10 16 -53 -24 -41 -37 -46 -47 -37 -63 5 -11 10 -36 10 -56 0
-34 -2 -36 -27 -33 -31 3 -47 38 -18 38 9 0 13 5 10 10 -3 6 -15 10 -26 10
-15 0 -19 -7 -19 -33 0 -18 6 -39 13 -46 10 -11 10 -14 0 -18 -8 -3 -13 -22
-13 -44 0 -28 -4 -39 -15 -39 -11 0 -15 -11 -15 -40 0 -22 -3 -40 -8 -40 -4 0
-12 -10 -17 -22 -6 -13 -17 -22 -27 -20 -9 1 -20 -3 -25 -10 -12 -20 -3 -131
13 -148 11 -11 14 -11 14 -1 0 7 8 3 19 -10 19 -24 19 -24 -2 -29 -18 -5 -16
-9 21 -39 23 -18 42 -39 42 -47 0 -16 16 -19 25 -4 3 6 0 10 -7 11 -44 3 145
31 227 33 55 2 110 8 122 14 12 7 29 9 37 6 11 -4 16 0 16 14 0 12 -4 24 -10
27 -5 3 -10 1 -10 -4 0 -6 -5 -11 -12 -11 -9 0 -9 3 0 12 7 7 12 30 12 52 0
39 3 42 49 65 47 23 51 23 75 8 35 -23 36 -22 36 23 0 45 18 52 58 24 20 -14
24 -14 52 6 17 12 30 26 30 31 0 16 -27 39 -44 39 -9 0 -16 5 -16 10 0 6 -11
10 -25 10 -14 0 -25 4 -25 8 0 5 -9 19 -20 32 -28 33 -27 87 3 100 12 6 42 26
67 44 25 19 50 35 57 35 8 1 12 -28 13 -96 1 -85 3 -127 9 -174 3 -25 73 -39
226 -44 140 -5 165 -4 243 16 94 24 97 26 130 80 17 29 22 52 22 107 0 39 -4
74 -10 77 -5 3 -10 15 -10 25 0 10 -9 25 -19 32 -11 8 -19 23 -17 34 5 31 50
29 110 -5 29 -17 60 -31 67 -31 15 -1 59 -34 59 -45 0 -10 54 -54 68 -55 6 0
12 -11 12 -24 0 -24 11 -31 70 -45 42 -10 37 -45 -12 -91 -39 -37 -44 -40 -66
-28 -19 10 -25 10 -32 -2 -16 -25 -11 -30 28 -30 20 0 55 -5 76 -11 34 -9 42
-9 52 6 11 15 23 16 81 11 37 -4 84 -8 103 -9 l35 -2 -3 43 c-3 35 -11 50 -50
87 -64 61 -142 125 -151 125 -9 0 -43 81 -36 88 2 3 20 -3 39 -12 19 -9 39
-16 45 -16 6 0 16 -10 22 -22 7 -13 31 -42 55 -65 24 -24 55 -60 71 -80 36
-48 81 -93 93 -93 5 0 25 -14 45 -31 31 -28 35 -36 35 -83 1 -71 15 -125 39
-150 19 -18 21 -18 21 -3 0 9 -7 17 -15 17 -25 0 -17 18 15 32 17 7 33 21 36
31 5 17 7 17 18 2 6 -9 18 -13 28 -10 12 5 17 28 23 98 10 107 9 118 -11 133
-19 15 -18 34 2 34 15 0 16 9 10 61 -3 34 -6 70 -6 80 0 11 -4 19 -10 19 -5 0
-10 -9 -10 -19 0 -23 -27 -22 -45 2 -7 9 -22 17 -34 17 -14 0 -21 6 -21 18 0
21 -19 42 -38 42 -7 0 -30 16 -50 35 -37 35 -52 43 -52 26 0 -4 -18 -3 -40 2
-33 9 -40 16 -40 35 0 19 -4 23 -17 17 -55 -23 -117 -13 -213 36 -59 29 -69
32 -235 54 -132 17 -121 16 -126 10z m56 -66 c95 -24 166 -49 175 -60 3 -3 20
-14 38 -23 18 -9 36 -24 39 -32 3 -7 14 -14 24 -14 14 0 19 -7 19 -29 0 -37
-19 -50 -36 -25 -30 43 -43 51 -91 48 -36 -1 -53 3 -69 17 -11 11 -31 22 -44
24 -13 2 -33 14 -45 25 -12 12 -44 26 -71 33 -32 8 -50 18 -52 30 -3 14 4 17
35 17 21 0 56 -5 78 -11z m-139 -184 c15 -14 30 -25 34 -25 10 0 -8 -81 -22
-97 -16 -19 -55 -16 -77 6 -23 23 -36 80 -27 116 9 34 55 34 92 0z m-242 -41
c10 -26 -4 -64 -25 -64 -37 0 -46 64 -10 73 28 8 29 7 35 -9z m1236 -75 c0
-11 -27 -12 -34 -1 -2 4 4 9 15 9 10 1 19 -2 19 -8z m-2140 -78 c0 -12 -21
-19 -37 -13 -22 8 -14 22 12 22 14 0 25 -4 25 -9z"/>
<path d="M10380 11475 c-36 -7 -84 -20 -108 -28 -23 -9 -58 -16 -77 -15 -19 1
-43 -6 -52 -14 -20 -17 -54 -32 -66 -29 -13 2 -97 -61 -97 -73 0 -6 -7 -23
-14 -38 -14 -26 -5 -51 9 -27 4 5 14 8 22 5 9 -4 11 -2 7 6 -5 8 -2 9 10 5 10
-4 24 -7 31 -7 7 0 18 -13 24 -30 12 -36 50 -41 81 -10 19 19 100 45 100 31
-1 -18 -20 -31 -59 -40 -47 -10 -63 -21 -43 -28 10 -4 8 -9 -7 -20 -12 -8 -21
-25 -21 -39 0 -13 -6 -24 -13 -24 -8 0 -30 -19 -50 -42 -48 -55 -38 -78 33
-78 43 0 50 3 50 20 0 13 -7 20 -18 20 -19 0 -42 18 -42 32 0 4 6 8 14 8 8 0
17 9 21 19 4 15 16 19 53 20 93 1 244 47 277 85 32 38 134 98 155 91 10 -3 25
1 33 10 31 31 52 8 22 -25 -32 -35 -61 -142 -59 -214 4 -87 23 -117 78 -123
21 -2 56 -13 77 -24 35 -17 57 -19 221 -17 178 2 184 3 205 26 26 28 39 122
29 224 -5 55 -3 70 8 74 15 6 126 -46 161 -74 29 -24 65 -89 65 -118 0 -30 33
-64 61 -64 12 0 34 -11 51 -25 16 -14 38 -25 49 -25 10 0 24 -9 31 -20 7 -11
17 -20 23 -20 5 0 28 -14 49 -30 41 -31 70 -38 81 -19 4 5 -14 32 -39 59 -25
27 -46 53 -46 58 0 6 16 17 36 27 33 16 36 20 31 51 -3 18 -17 49 -31 67 -14
19 -26 39 -26 44 0 11 -70 77 -106 101 -37 24 -179 85 -211 89 -18 3 -33 9
-33 14 0 32 -362 114 -605 138 -55 6 -116 15 -135 20 -45 14 -158 12 -240 -4z
m688 -288 c17 -13 15 -58 -4 -85 -17 -25 -65 -30 -82 -9 -19 22 -27 98 -12
107 16 10 80 1 98 -13z m-260 -55 c4 -30 -26 -42 -44 -17 -10 14 -11 22 -2 32
16 20 42 12 46 -15z m872 -162 c0 -5 -2 -10 -4 -10 -3 0 -8 5 -11 10 -3 6 -1
10 4 10 6 0 11 -4 11 -10z"/>
<path d="M12744 11424 c3 -9 6 -31 6 -50 0 -19 5 -34 10 -34 6 0 10 23 10 50
0 39 -3 50 -16 50 -11 0 -14 -5 -10 -16z"/>
<path d="M12745 11310 c-6 -10 1 -164 11 -247 3 -24 10 -43 16 -43 7 0 8 20 3
63 -12 95 -9 165 10 193 8 13 13 29 10 34 -8 13 -42 13 -50 0z"/>
<path d="M10341 10995 c-18 -8 -49 -15 -67 -15 -42 0 -46 -26 -9 -53 31 -22
162 -31 169 -10 9 23 -29 94 -50 93 -5 -1 -24 -7 -43 -15z"/>
<path d="M5028 10873 c-10 -2 -18 -14 -18 -25 0 -11 -24 -43 -54 -73 -47 -45
-55 -59 -61 -101 -4 -27 -14 -65 -22 -84 -14 -33 -17 -49 -21 -119 -1 -16 -9
-36 -17 -45 -19 -18 -35 -126 -35 -236 0 -118 35 -260 64 -260 7 0 18 -21 25
-46 8 -26 24 -65 36 -88 12 -24 26 -53 30 -67 4 -13 14 -31 22 -41 8 -9 17
-31 19 -50 3 -18 16 -49 30 -69 13 -19 24 -44 24 -55 0 -12 13 -32 28 -46 35
-31 142 -246 142 -287 1 -40 57 -158 120 -249 22 -31 40 -66 40 -77 0 -11 4
-25 8 -31 8 -11 52 -14 52 -3 0 3 17 6 38 5 32 -1 37 2 40 22 2 13 -3 31 -11
40 -8 9 -17 29 -21 45 -6 26 -33 60 -53 68 -6 2 -31 45 -57 94 -41 78 -49 100
-53 165 -3 43 -12 86 -21 100 -23 36 -60 149 -71 219 -5 34 -12 65 -16 70 -3
5 0 11 7 13 8 3 7 12 -4 34 -24 44 -38 235 -32 449 9 342 8 331 27 352 9 11
17 25 17 31 0 7 3 12 8 12 4 0 12 10 17 22 6 14 22 25 39 28 38 6 47 30 12 30
-20 0 -26 5 -26 23 0 13 -15 37 -36 56 -20 19 -40 46 -46 60 -6 14 -12 21 -15
14 -3 -10 -9 -10 -24 0 -13 8 -19 23 -19 47 0 32 -3 36 -40 48 -41 12 -44 13
-72 5z m406 -2018 c-4 -8 -12 -15 -20 -15 -17 0 -18 17 -1 23 22 9 27 7 21 -8z"/>
<path d="M12873 10836 c-10 -13 -22 -31 -28 -41 -9 -15 -12 -15 -31 4 -12 11
-25 17 -28 14 -9 -9 -5 -244 4 -273 7 -21 8 -19 9 18 1 23 5 42 10 42 5 0 13
9 16 20 4 12 25 33 47 47 24 16 49 45 64 74 13 26 29 51 35 54 14 9 -39 65
-62 65 -10 0 -26 -11 -36 -24z"/>
<path d="M5488 10793 c6 -2 18 -2 25 0 6 3 1 5 -13 5 -14 0 -19 -2 -12 -5z"/>
<path d="M13370 10683 c-8 -3 -22 -12 -32 -20 -15 -13 -13 -19 18 -66 19 -28
34 -57 34 -63 0 -19 28 -24 44 -8 8 8 13 21 10 29 -4 8 -1 15 6 15 12 0 5 88
-9 102 -10 10 -54 17 -71 11z"/>
<path d="M6945 10670 c-3 -5 -1 -10 4 -10 6 0 11 5 11 10 0 6 -2 10 -4 10 -3
0 -8 -4 -11 -10z"/>
<path d="M5360 10524 c0 -10 12 -14 40 -14 22 0 40 5 40 10 0 6 -3 10 -7 11
-64 7 -73 6 -73 -7z"/>
<path d="M5636 9904 c-4 -9 -3 -21 2 -26 12 -12 23 15 12 31 -5 9 -9 8 -14 -5z"/>
<path d="M8400 9717 c0 -8 -18 -22 -40 -32 -33 -15 -90 -71 -90 -89 0 -3 -12
-18 -26 -33 -14 -15 -35 -46 -46 -68 -11 -22 -31 -60 -44 -85 -13 -24 -24 -56
-24 -70 -1 -25 -50 -97 -50 -72 0 7 -5 10 -10 7 -6 -4 -8 -10 -5 -15 2 -4 -3
-18 -13 -31 -10 -13 -29 -48 -42 -76 -14 -29 -28 -53 -32 -53 -13 0 -9 -35 8
-58 10 -15 11 -22 3 -22 -8 0 -8 -4 1 -15 7 -9 29 -15 51 -15 28 0 39 4 39 15
0 11 11 15 40 15 34 0 40 -3 40 -21 0 -11 4 -17 10 -14 16 10 40 -14 40 -41 0
-12 7 -29 15 -38 8 -8 15 -23 15 -33 1 -10 7 -29 15 -43 20 -35 20 -130 0
-130 -8 0 -15 -9 -15 -20 0 -19 -17 -25 -62 -22 -23 2 -46 -27 -29 -38 22 -13
-29 -105 -58 -105 -15 0 -28 -10 -38 -28 -10 -20 -21 -27 -36 -25 -13 2 -33
-7 -47 -20 l-25 -23 24 -20 23 -19 -26 0 c-19 0 -26 -5 -26 -20 0 -11 -4 -20
-10 -20 -5 0 -10 -8 -10 -19 0 -10 -8 -21 -17 -25 -18 -5 -53 -26 -63 -36 -11
-11 -73 -29 -81 -24 -5 3 -9 0 -9 -5 0 -6 -7 -11 -15 -11 -11 0 -14 -7 -9 -24
5 -20 -4 -34 -51 -80 -32 -31 -62 -56 -66 -56 -5 0 -9 -11 -9 -25 0 -18 -14
-35 -55 -65 -30 -22 -55 -47 -55 -55 0 -8 -5 -15 -10 -15 -24 0 11 -39 37 -42
29 -4 73 10 84 26 4 5 23 6 43 3 20 -3 36 -2 36 4 0 5 8 9 19 9 15 0 20 10 24
48 20 158 19 155 80 166 31 6 37 4 37 -11 0 -10 -12 -24 -29 -31 l-29 -13 16
-39 c10 -22 22 -40 29 -40 14 0 85 40 94 53 3 4 12 7 19 5 7 -2 15 3 17 10 3
6 -1 12 -7 12 -10 0 -10 4 0 15 7 8 20 15 30 15 11 0 21 12 26 33 6 20 17 33
29 35 17 2 22 -6 32 -59 6 -33 14 -63 16 -65 7 -7 57 18 52 26 -8 13 18 80 32
80 7 0 13 -6 13 -13 0 -19 29 -42 68 -55 45 -15 75 2 68 38 -6 33 6 52 27 44
20 -7 20 -9 7 -34 -8 -15 -4 -22 24 -40 38 -23 112 -25 121 -2 6 17 44 15 51
-2 6 -15 40 -10 82 13 14 7 23 8 27 1 11 -18 30 -11 50 20 18 27 25 30 78 30
58 0 69 8 41 31 -12 10 -17 10 -23 0 -5 -7 -23 -11 -47 -9 -33 3 -39 7 -41 28
-1 14 0 19 3 13 8 -18 89 -16 108 2 8 8 28 15 45 15 27 0 30 -2 20 -18 -9 -14
-6 -24 17 -50 31 -35 64 -41 85 -16 11 14 10 18 -10 34 -14 10 -19 20 -13 23
5 4 13 21 16 39 3 18 17 55 31 82 30 60 31 71 4 89 -31 22 -59 10 -59 -24 0
-16 -5 -29 -11 -29 -6 0 -9 9 -6 20 3 11 1 35 -3 55 -7 30 -4 39 21 67 31 35
36 57 18 75 -17 17 35 46 85 49 50 2 116 39 116 65 0 10 5 19 10 19 6 0 10 4
10 9 0 5 14 23 31 40 17 17 35 31 40 31 5 0 9 8 9 18 -1 19 -117 92 -147 92
-38 0 -93 21 -93 36 0 15 -45 39 -90 48 -14 3 -41 19 -60 37 -19 17 -47 37
-62 45 -16 8 -28 21 -28 29 0 8 -7 15 -15 15 -8 0 -19 9 -25 20 -6 11 -16 20
-23 20 -7 0 -19 20 -26 46 -7 25 -21 52 -29 61 -14 14 -18 13 -37 -11 -12 -15
-37 -54 -56 -86 -37 -65 -62 -76 -136 -64 -29 4 -51 0 -87 -16 -43 -21 -51
-22 -89 -9 -23 7 -45 18 -49 24 -4 5 -8 51 -8 100 0 67 4 97 16 113 9 13 18
37 21 55 2 18 9 36 14 42 5 5 9 17 9 27 0 10 9 26 20 35 11 10 20 23 20 30 0
7 4 13 9 13 5 0 23 14 40 31 17 17 31 35 31 40 0 16 49 9 59 -9 7 -14 19 -17
55 -14 31 3 46 9 46 18 0 8 6 14 13 14 7 0 19 16 26 35 11 31 10 39 -10 75
l-23 40 -83 0 c-63 0 -83 -3 -83 -13z m170 -657 c-19 -13 -30 -13 -30 0 0 6
10 10 23 10 18 0 19 -2 7 -10z m-298 -425 c6 -31 0 -38 -18 -20 -15 14 -18 37
-8 48 11 10 21 -1 26 -28z m-462 -430 c0 -16 -9 -19 -34 -9 -25 9 -19 24 9 24
16 0 25 -6 25 -15z"/>
<path d="M5520 9640 c0 -10 -9 -24 -20 -30 -11 -6 -20 -15 -20 -20 0 -6 9 -10
20 -10 17 0 20 -7 20 -40 0 -36 3 -40 25 -40 28 0 29 3 19 99 -6 50 -10 61
-25 61 -12 0 -19 -7 -19 -20z"/>
<path d="M5450 9340 c0 -20 5 -30 15 -30 10 0 15 10 15 30 0 20 -5 30 -15 30
-10 0 -15 -10 -15 -30z"/>
<path d="M5502 9340 c0 -19 2 -27 5 -17 2 9 2 25 0 35 -3 9 -5 1 -5 -18z"/>
<path d="M5493 9164 c-11 -29 12 -38 61 -24 64 18 61 40 -4 40 -37 0 -52 -4
-57 -16z"/>
<path d="M5773 9128 c-12 -16 -15 -144 -5 -218 5 -43 3 -62 -10 -88 -16 -32
-16 -34 5 -58 l22 -25 8 28 c11 37 10 354 -1 365 -5 5 -13 3 -19 -4z"/>
<path d="M9720 9013 c-42 -7 -134 -44 -152 -60 -23 -21 -23 -50 0 -57 9 -3 33
-1 52 4 19 6 36 10 37 10 2 0 3 -11 3 -25 0 -14 5 -25 10 -25 6 0 10 -6 10
-14 0 -16 58 -30 86 -20 20 7 104 93 104 107 0 5 -7 24 -16 42 -12 26 -23 34
-52 39 -39 6 -41 6 -82 -1z"/>
<path d="M12570 8855 c0 -8 -11 -24 -24 -37 -14 -13 -35 -49 -47 -82 -18 -50
-20 -64 -10 -96 11 -38 6 -74 -9 -65 -12 8 -28 -17 -34 -55 -7 -40 0 -56 28
-62 29 -5 46 36 39 92 -5 41 -4 43 9 26 14 -18 15 -17 27 12 7 16 13 73 14
125 1 53 5 93 9 91 4 -3 8 11 8 30 0 20 -2 36 -5 36 -3 0 -5 -7 -5 -15z"/>
<path d="M5777 8724 c-4 -4 -7 -14 -7 -22 0 -8 -8 -20 -17 -27 -13 -10 -15
-16 -6 -26 14 -19 25 -81 26 -152 1 -44 -4 -64 -21 -87 -18 -24 -20 -30 -7
-30 8 0 15 -4 15 -10 0 -5 7 -10 15 -10 8 0 15 -4 15 -9 0 -5 -7 -14 -15 -21
-8 -7 -15 -16 -15 -21 0 -5 7 -9 15 -9 8 0 15 -9 15 -20 0 -11 -5 -20 -11 -20
-6 0 -18 -7 -26 -16 -14 -13 -14 -17 -2 -25 8 -5 21 -9 30 -9 8 0 20 -5 27
-12 15 -15 18 -3 26 80 5 58 4 64 -14 69 -11 3 -20 10 -20 17 -1 6 -1 79 0
161 0 145 -8 214 -23 199z"/>
<path d="M5920 8650 c0 -6 -10 -15 -22 -20 -21 -8 -21 -9 -3 -9 11 -1 26 8 33
19 7 12 8 20 2 20 -5 0 -10 -5 -10 -10z"/>
<path d="M6008 8623 c7 -3 16 -2 19 1 4 3 -2 6 -13 5 -11 0 -14 -3 -6 -6z"/>
<path d="M5826 8568 c-3 -13 -6 -41 -6 -64 0 -39 1 -41 33 -41 17 0 40 7 50
15 15 14 17 13 17 -1 0 -8 -6 -18 -12 -20 -10 -4 -9 -8 2 -16 12 -9 13 -14 3
-31 -7 -11 -13 -33 -13 -49 0 -16 6 -31 13 -34 8 -2 12 -26 11 -75 0 -39 3
-69 8 -66 4 3 8 12 8 20 0 8 4 14 9 14 9 0 23 -39 27 -75 18 -156 18 -155 -7
-188 -19 -27 -23 -42 -20 -91 2 -61 34 -141 51 -131 18 11 22 -36 4 -56 -10
-11 -12 -19 -6 -19 7 0 12 -16 12 -40 0 -28 -4 -40 -14 -40 -15 0 -36 49 -36
82 0 12 -5 18 -12 15 -7 -2 -11 -11 -9 -18 2 -8 8 -34 12 -59 5 -25 20 -69 34
-98 22 -46 29 -73 34 -130 1 -8 8 -11 19 -8 14 5 20 -3 30 -37 7 -23 13 -59
14 -79 1 -26 7 -39 19 -43 10 -3 32 -35 50 -70 18 -36 41 -72 51 -82 10 -9 18
-27 18 -40 0 -13 5 -31 10 -41 6 -9 23 -62 38 -117 17 -61 33 -99 40 -97 7 1
12 -6 12 -17 0 -11 12 -23 29 -31 20 -8 31 -21 35 -41 7 -35 94 -156 118 -162
9 -3 21 -20 26 -38 5 -23 15 -35 29 -37 35 -5 47 -29 45 -91 -2 -48 2 -62 24
-91 18 -25 24 -28 20 -13 -9 30 28 57 55 40 11 -7 19 -17 19 -24 0 -7 18 -17
39 -24 31 -9 40 -17 45 -41 3 -17 3 -41 0 -54 -5 -18 -2 -24 9 -24 31 0 63
-22 74 -51 7 -17 7 -31 2 -35 -16 -9 -10 -60 9 -77 23 -21 36 -21 65 -3 19 11
27 12 54 0 26 -11 34 -22 47 -71 9 -32 21 -75 26 -95 9 -31 15 -38 35 -38 14
0 25 4 25 9 0 15 49 19 61 5 6 -8 17 -14 24 -14 7 0 24 -12 39 -26 21 -22 26
-36 26 -78 0 -54 28 -136 46 -136 6 0 19 9 29 20 22 24 39 16 31 -14 -4 -16 2
-29 18 -44 l25 -21 28 27 c28 27 28 27 6 30 -17 3 -23 10 -23 30 0 34 17 62
28 46 4 -6 17 -16 30 -23 14 -8 22 -21 22 -39 0 -29 24 -72 41 -72 5 0 25 -16
44 -36 22 -22 41 -34 50 -30 10 4 15 -1 15 -14 0 -11 7 -20 15 -20 8 0 15 7
15 15 0 8 4 15 10 15 14 0 30 -35 30 -64 0 -14 5 -28 11 -32 8 -5 8 -9 -1 -14
-9 -6 -3 -17 21 -38 21 -19 38 -27 43 -21 6 5 27 9 48 9 29 0 38 -4 38 -17 0
-15 2 -15 9 -4 8 12 14 12 44 -3 20 -9 45 -29 57 -44 57 -75 50 -71 188 -98
12 -2 22 -11 22 -18 0 -17 22 -26 59 -26 15 0 37 -9 49 -20 18 -17 20 -25 11
-41 -13 -24 0 -43 45 -66 21 -11 58 -16 123 -15 l93 0 0 -39 c0 -27 4 -39 14
-39 8 0 28 -8 45 -17 28 -16 33 -16 41 -3 7 11 5 16 -6 18 -17 4 -14 24 4 30
6 2 14 -8 18 -22 5 -20 12 -26 34 -26 16 0 32 5 35 10 3 6 1 10 -4 10 -6 0
-11 8 -11 18 0 12 3 13 8 5 6 -10 23 -10 70 -2 35 5 68 7 74 3 5 -4 13 -3 17
2 3 5 16 17 28 28 19 15 25 16 38 6 8 -7 15 -9 15 -6 0 4 8 2 18 -3 14 -7 21
-5 30 10 12 20 82 28 82 10 0 -15 23 -19 50 -9 20 7 22 11 10 18 -11 7 -1 10
32 10 26 0 50 -5 53 -10 4 -7 24 -8 52 -4 25 4 53 7 62 8 19 1 51 44 51 69 0
10 8 17 20 17 21 0 29 -33 10 -45 -5 -3 -10 -15 -10 -26 0 -10 5 -19 10 -19 6
0 10 7 10 15 0 8 9 15 20 15 10 0 25 10 31 23 18 33 41 47 74 46 114 -4 140 1
173 32 17 16 46 35 62 41 17 5 30 14 30 19 0 5 9 9 19 9 11 0 23 4 26 10 3 6
20 10 37 10 21 0 44 12 75 40 29 25 56 40 72 40 14 0 44 11 66 25 22 13 46 25
53 25 7 0 28 11 46 25 18 14 38 25 44 25 6 0 14 10 17 23 9 29 65 77 90 77 23
0 125 41 125 50 0 11 53 72 100 117 63 58 119 97 160 111 19 7 43 21 55 31 11
10 37 24 57 30 25 8 39 20 46 39 12 34 70 102 88 102 7 0 19 6 26 14 8 7 28
21 45 29 17 9 42 30 55 47 12 17 51 64 86 104 34 40 62 78 62 85 0 6 12 14 28
17 15 4 38 20 52 37 49 58 56 67 99 126 25 35 51 61 61 61 24 0 96 75 120 126
11 23 33 52 48 67 32 29 72 76 72 84 0 3 9 16 20 31 11 14 25 44 31 67 6 23
20 48 31 56 40 26 78 72 78 93 0 8 5 18 10 21 6 3 10 14 10 25 0 10 7 20 15
24 11 4 15 21 15 67 l0 61 -31 -19 c-19 -11 -38 -34 -48 -59 -9 -23 -21 -48
-27 -55 -7 -8 -15 -29 -19 -46 -3 -18 -25 -53 -48 -78 l-42 -46 -38 21 c-49
26 -72 13 -63 -35 5 -27 0 -37 -39 -79 -38 -39 -49 -45 -61 -36 -8 7 -14 21
-14 32 0 29 -19 58 -34 52 -8 -3 -17 -1 -21 5 -11 19 -25 12 -25 -14 0 -25
-23 -35 -35 -15 -11 18 -27 11 -20 -9 4 -14 -1 -25 -20 -37 -14 -9 -25 -23
-25 -30 0 -8 -5 -14 -11 -14 -6 0 -9 -6 -6 -12 10 -27 -74 -144 -95 -132 -3 2
-9 18 -13 34 -5 25 -12 30 -35 30 -21 0 -29 -6 -34 -24 -3 -14 -19 -33 -35
-42 -16 -10 -34 -27 -40 -40 -14 -32 -51 -21 -51 16 0 29 -22 54 -56 64 -33
10 -47 -15 -40 -71 15 -127 23 -248 17 -272 -7 -24 -9 -23 -26 24 -36 98 -55
100 -55 6 0 -53 -4 -70 -15 -75 -23 -8 -30 19 -16 65 7 22 9 59 5 87 -5 37 -2
51 10 61 14 11 16 11 16 -4 0 -14 3 -15 15 -5 8 7 15 27 15 44 0 26 -5 34 -30
43 -16 6 -30 18 -30 27 0 9 -8 16 -18 16 -17 0 -18 -5 -8 -49 7 -38 7 -53 -3
-65 -24 -29 -47 -19 -60 25 -16 54 -29 40 -38 -40 -5 -53 -8 -61 -18 -47 -7 9
-24 16 -39 16 -21 0 -26 -5 -26 -25 0 -20 -6 -27 -28 -31 -32 -6 -57 -52 -47
-83 5 -18 2 -19 -29 -14 -49 8 -61 -21 -22 -52 32 -25 29 -57 -5 -76 -13 -7
-18 -16 -14 -28 7 -22 -23 -37 -39 -21 -15 15 -30 12 -43 -9 -9 -15 -9 -29 3
-66 16 -56 18 -85 4 -85 -5 0 -9 3 -9 8 1 4 1 19 0 35 -1 23 -5 27 -31 27 -23
0 -31 5 -36 25 -8 34 -18 31 -32 -7 -7 -21 -26 -41 -51 -55 -55 -32 -69 -30
-63 7 11 73 -24 106 -53 50 -29 -56 -88 -62 -78 -7 2 12 -3 31 -11 42 -19 26
-50 10 -54 -29 -6 -45 -27 -31 -23 15 2 15 -16 28 -45 34 -15 4 -38 -78 -31
-106 7 -25 -8 -69 -23 -69 -5 0 -10 8 -11 18 -1 27 -38 129 -38 106 -1 -11
-12 -35 -26 -54 -14 -19 -25 -41 -25 -50 0 -8 -7 -26 -16 -38 -8 -12 -12 -22
-7 -22 22 0 -76 -49 -98 -50 -25 0 -27 4 -32 58 -4 32 -12 70 -19 83 -13 25
-13 25 -43 7 -17 -10 -41 -16 -56 -13 -34 6 -78 -37 -60 -59 6 -7 10 -18 9
-23 -4 -13 24 -83 34 -83 4 0 8 -7 8 -15 0 -8 4 -15 9 -15 5 0 11 -8 15 -17 3
-10 9 -24 12 -30 3 -8 -1 -13 -10 -13 -9 0 -19 8 -23 18 -3 9 -13 25 -22 34
-30 32 -41 47 -41 56 0 5 -7 15 -15 22 -20 17 -19 37 3 43 13 4 12 5 -5 6 -15
1 -25 11 -33 36 -9 27 -17 35 -36 35 -21 0 -24 -4 -24 -39 l0 -38 -53 2 c-61
2 -81 11 -73 32 9 23 -10 49 -49 67 -38 18 -45 33 -19 38 18 3 28 49 18 81 -7
24 -51 22 -59 -2 -3 -10 -17 -22 -30 -25 -17 -4 -25 -13 -25 -29 0 -29 -43
-82 -66 -82 -25 0 -46 30 -53 74 -5 26 -12 36 -34 44 -33 11 -43 4 -52 -35 -6
-24 -3 -29 19 -38 20 -7 26 -16 26 -39 0 -16 -5 -33 -11 -36 -5 -4 -9 -23 -8
-43 6 -92 -13 -129 -26 -52 -6 33 -11 40 -30 40 -14 0 -25 7 -28 20 -3 11 -10
20 -16 20 -18 0 -25 -31 -10 -42 11 -7 10 -8 -5 -6 -12 2 -24 18 -33 42 -12
35 -11 42 3 55 12 12 18 13 21 4 8 -21 29 -15 43 12 11 21 11 29 0 50 -13 25
-30 33 -30 15 0 -5 -7 -10 -15 -10 -8 0 -15 -4 -15 -10 0 -5 -7 -10 -15 -10
-8 0 -26 -5 -40 -12 -22 -10 -25 -17 -25 -60 0 -36 -4 -48 -15 -48 -20 0 -31
28 -16 43 15 15 14 52 -1 65 -7 5 -28 13 -46 17 -27 6 -38 3 -58 -16 -13 -12
-24 -28 -24 -36 0 -16 -24 -17 -50 0 -17 10 -22 9 -30 -3 -7 -12 -13 -9 -30
13 -12 15 -28 27 -36 27 -8 0 -14 5 -14 10 0 6 -10 8 -24 4 -22 -5 -23 -3 -21
43 1 30 1 34 -2 11 -4 -40 -33 -55 -33 -18 0 17 -7 20 -40 20 -39 0 -40 1 -40
34 0 22 -6 36 -16 40 -26 10 -34 7 -43 -16 -7 -19 -14 -22 -53 -19 -39 2 -46
-1 -51 -18 -9 -36 -77 -19 -77 19 0 41 -20 18 -26 -30 -4 -32 -11 -50 -20 -50
-19 0 -18 67 1 104 15 28 15 28 -10 24 -19 -4 -25 -1 -25 13 0 22 -53 35 -90
21 -32 -12 -50 -5 -50 18 0 24 18 37 63 45 33 6 37 11 37 36 0 28 -2 29 -49
29 -33 0 -55 6 -66 17 -16 16 -18 16 -27 0 -12 -22 -58 -23 -58 -2 0 13 -11
16 -52 14 -38 -2 -53 1 -56 12 -3 8 -30 38 -61 66 -42 40 -61 51 -76 47 -16
-5 -18 -4 -7 7 6 7 12 23 12 36 0 13 6 23 14 23 15 0 26 21 26 51 0 15 -5 18
-22 14 -13 -3 -30 -1 -38 5 -13 8 -11 13 13 34 30 26 29 28 -18 60 -17 12 -18
18 -8 50 14 46 3 53 -49 31 -48 -20 -55 -6 -23 44 39 63 29 161 -17 161 -8 0
-19 5 -26 12 -9 9 -12 9 -12 0 0 -7 -6 -12 -14 -12 -17 0 -26 31 -26 88 0 41
-1 42 -27 36 -40 -9 -63 -40 -63 -84 0 -43 -5 -47 -61 -42 -39 4 -39 4 -39 46
0 61 -54 108 -86 76 -11 -11 -54 30 -67 64 -9 24 -30 16 -37 -15 -7 -28 -37
-33 -53 -8 -10 16 10 79 25 79 17 0 6 23 -28 57 l-36 35 7 69 c6 61 5 70 -15
91 -12 13 -24 35 -27 50 -3 15 -10 25 -15 22 -5 -3 -16 2 -24 12 -14 17 -15
11 -10 -60 l5 -79 -25 26 c-13 14 -24 30 -24 35 0 5 -7 24 -16 42 -13 26 -14
36 -5 49 6 9 14 24 17 34 4 9 9 17 12 17 2 0 11 -8 18 -17 13 -17 13 -17 14 0
0 9 -5 17 -11 17 -7 0 -9 18 -5 53 10 92 8 114 -11 121 -7 3 -13 1 -13 -4 0
-6 -13 -10 -30 -10 -20 0 -30 -5 -30 -15 0 -8 -4 -15 -10 -15 -5 0 -10 11 -10
24 0 16 -7 27 -20 31 -16 5 -20 15 -20 46 0 21 -5 39 -10 39 -6 0 -25 14 -42
31 l-32 30 -18 -23 c-15 -19 -18 -20 -18 -5 0 9 -4 17 -10 17 -5 0 -10 -6 -10
-14 0 -8 5 -18 10 -21 6 -3 10 -22 10 -42 0 -41 -28 -143 -39 -143 -15 0 -41
37 -41 58 0 11 -7 25 -17 30 -11 7 -14 15 -8 28 4 11 7 27 6 36 -1 9 7 21 17
27 28 15 33 47 11 75 -10 13 -19 29 -19 35 0 6 -7 11 -15 11 -11 0 -15 11 -15
38 0 58 -22 82 -76 82 -37 0 -44 3 -44 20 0 13 -7 20 -18 20 -17 0 -20 13 -26
127 -7 127 -15 157 -42 146 -17 -6 -18 7 -2 42 10 22 9 28 -3 35 -18 12 -20
50 -3 50 8 0 14 7 14 15 0 10 -7 15 -17 13 -12 -2 -19 4 -21 20 -2 12 -12 27
-23 32 -10 6 -19 20 -19 30 0 33 -16 23 -46 -27 l-27 -47 -18 23 c-11 13 -19
34 -19 47 0 20 -5 24 -29 24 -21 0 -30 -6 -35 -22z m275 -588 c16 0 19 -7 19
-40 0 -39 -1 -40 -35 -40 -31 0 -35 -3 -35 -25 0 -23 -2 -24 -25 -13 -16 7
-25 19 -25 35 0 18 5 23 25 23 20 0 25 5 25 24 0 14 5 37 12 53 11 27 12 27
15 6 3 -15 12 -23 24 -23z m-45 -287 c-11 -11 -19 6 -11 24 8 17 8 17 12 0 3
-10 2 -21 -1 -24z m189 7 c-3 -5 -15 -10 -26 -10 -10 0 -19 5 -19 10 0 6 12
10 26 10 14 0 23 -4 19 -10z m265 -30 c0 -5 7 -10 15 -10 17 0 20 -16 4 -25
-6 -4 -19 2 -30 14 -23 24 -24 31 -4 31 8 0 15 -4 15 -10z m-2 -151 c3 -16
-36 -44 -46 -33 -4 4 -1 9 6 11 6 3 12 14 12 25 0 22 23 20 28 -3z m-248 -59
c0 -5 -4 -10 -10 -10 -5 0 -10 5 -10 10 0 6 5 10 10 10 6 0 10 -4 10 -10z m90
-110 c0 -15 -7 -33 -15 -40 -13 -11 -15 -5 -15 40 0 45 2 51 15 40 8 -7 15
-25 15 -40z m-183 -37 c20 -47 20 -94 0 -107 -14 -9 -20 -8 -27 4 -5 8 -8 21
-5 28 3 8 5 34 5 58 0 50 10 56 27 17z m559 -127 c31 -32 6 -116 -31 -102 -27
10 -15 116 13 116 2 0 10 -6 18 -14z m119 -256 c-3 -5 -10 -10 -16 -10 -5 0
-9 5 -9 10 0 6 7 10 16 10 8 0 12 -4 9 -10z m195 -47 c0 -52 -1 -55 -15 -37
-20 26 -20 94 0 94 12 0 15 -13 15 -57z m200 -62 c0 -68 -19 -91 -41 -50 -8
15 -8 19 0 15 7 -5 11 6 11 33 0 30 4 41 15 41 11 0 15 -11 15 -39z m-76 -80
c7 -10 -17 -21 -45 -21 -10 0 -19 7 -19 15 0 17 55 22 64 6z m4406 -112 c0 -5
-12 -9 -27 -9 -27 1 -27 1 -9 15 19 14 36 12 36 -6z m-1947 -905 c-7 -18 -19
-18 -26 0 -7 18 1 26 18 19 8 -2 11 -11 8 -19z m-1081 -16 c-9 -9 -12 -7 -12
12 0 19 3 21 12 12 9 -9 9 -15 0 -24z m1598 17 c0 -8 -4 -15 -9 -15 -5 0 -11
7 -15 15 -3 9 0 15 9 15 8 0 15 -7 15 -15z m-700 -15 c0 -13 -7 -20 -20 -20
-19 0 -27 20 -13 33 13 14 33 6 33 -13z m-2058 -65 c-5 -31 -22 -23 -22 10 0
16 4 23 14 19 8 -3 11 -15 8 -29z m13 -55 c3 -5 1 -10 -4 -10 -6 0 -11 5 -11
10 0 6 2 10 4 10 3 0 8 -4 11 -10z m1103 -706 c-2 -8 -7 -16 -12 -17 -14 -3
-30 29 -23 47 6 16 8 16 23 2 8 -9 14 -23 12 -32z m187 -34 c-3 -5 -10 -10
-16 -10 -5 0 -9 5 -9 10 0 6 7 10 16 10 8 0 12 -4 9 -10z m140 0 c-3 -5 -10
-10 -16 -10 -5 0 -9 5 -9 10 0 6 7 10 16 10 8 0 12 -4 9 -10z"/>
<path d="M9542 8554 c-12 -15 -21 -27 -20 -28 2 -1 15 -10 30 -19 39 -24 55
-21 66 12 8 24 7 32 -7 45 -25 22 -42 20 -69 -10z"/>
<path d="M5520 8535 c0 -15 4 -24 10 -20 6 3 10 12 10 20 0 8 -4 17 -10 20 -6
4 -10 -5 -10 -20z"/>
<path d="M9700 8550 c-14 -4 -19 -8 -12 -9 10 -1 9 -5 -3 -18 -35 -34 -44 -86
-20 -117 15 -19 15 -19 38 2 13 12 31 22 40 22 9 0 17 5 17 10 0 7 6 7 20 0
14 -8 26 -7 42 1 l21 12 -24 13 c-29 16 -56 18 -61 4 -4 -12 -78 9 -78 22 0 4
28 7 62 6 64 -3 78 5 56 35 -16 20 -64 29 -98 17z"/>
<path d="M9620 8440 c0 -5 5 -10 10 -10 6 0 10 5 10 10 0 6 -4 10 -10 10 -5 0
-10 -4 -10 -10z"/>
<path d="M9217 8370 c-19 -22 -23 -50 -7 -50 6 0 10 -22 10 -50 0 -27 5 -50
10 -50 6 0 10 -18 10 -40 0 -33 3 -40 19 -40 15 0 21 8 24 38 3 24 4 21 2 -10
-2 -53 -3 -52 39 -37 29 10 31 14 27 51 -2 24 1 38 6 35 5 -3 8 7 5 24 -4 26
-8 29 -43 29 -28 0 -39 4 -39 15 0 8 6 15 13 15 22 0 67 24 67 37 0 6 -18 14
-40 18 -25 4 -40 12 -40 21 0 21 -43 17 -63 -6z"/>
<path d="M9852 8369 c2 -6 8 -10 13 -10 5 0 11 4 13 10 2 6 -4 11 -13 11 -9 0
-15 -5 -13 -11z"/>
<path d="M9930 8310 c-12 -8 -10 -10 8 -10 13 0 20 4 17 10 -7 12 -6 12 -25 0z"/>
<path d="M5866 8152 c-2 -4 2 -16 11 -27 14 -20 15 -20 28 -1 8 10 12 23 9 27
-6 11 -41 12 -48 1z"/>
<path d="M6488 8143 c7 -3 16 -2 19 1 4 3 -2 6 -13 5 -11 0 -14 -3 -6 -6z"/>
<path d="M7797 7964 c-13 -13 -7 -24 14 -24 11 0 19 5 17 12 -5 14 -22 21 -31
12z"/>
<path d="M10534 7919 c-8 -14 16 -31 34 -24 8 3 18 5 24 5 6 0 6 6 -2 15 -15
18 -46 20 -56 4z"/>
<path d="M8630 7910 c-8 -5 -27 -10 -42 -10 -16 0 -28 -4 -28 -9 0 -13 -87
-31 -150 -30 -84 0 -172 -10 -205 -26 -16 -7 -64 -19 -105 -25 -41 -6 -88 -16
-105 -22 -16 -7 -66 -12 -110 -13 -56 -1 -98 -8 -139 -23 -33 -12 -61 -20 -63
-18 -2 2 -22 -13 -44 -33 -35 -31 -38 -37 -22 -41 33 -10 83 -45 89 -62 4 -15
18 -18 89 -18 65 0 102 -6 162 -27 51 -17 107 -28 163 -31 59 -3 89 -9 97 -19
10 -12 17 -12 52 7 23 11 41 24 41 29 0 4 68 11 151 14 129 5 156 4 192 -11
35 -14 68 -16 197 -14 253 6 518 -4 538 -20 18 -15 113 -11 148 6 16 9 67 17
114 20 84 4 173 17 240 36 32 9 135 16 335 26 44 2 100 8 125 14 77 18 151 15
195 -8 22 -11 54 -22 70 -23 40 -4 95 19 95 40 0 12 2 13 9 3 6 -11 11 -10 25
3 25 26 32 66 12 77 -9 5 -16 15 -16 22 0 8 -8 17 -17 20 -10 4 -30 13 -45 21
-23 14 -32 14 -69 1 -24 -8 -46 -13 -50 -10 -5 3 -16 0 -26 -5 -26 -14 -112
-30 -137 -25 -83 17 -279 42 -288 37 -4 -2 -16 1 -27 6 -20 11 -81 -3 -81 -18
0 -9 -72 -7 -87 2 -6 4 -16 0 -23 -8 -17 -20 -37 -19 -49 3 -9 16 -11 16 -23
-1 -11 -14 -29 -19 -76 -21 -58 -2 -63 0 -67 21 -3 13 -7 34 -10 48 -3 14 -1
25 5 25 5 0 10 -11 10 -25 0 -22 3 -24 19 -15 13 6 18 18 16 32 -9 46 -48 45
-94 -3 -16 -16 -31 -29 -35 -29 -11 0 -6 28 7 33 6 3 -16 6 -50 6 -46 1 -63
-3 -63 -12 0 -55 -238 -44 -308 15 -24 20 -119 47 -209 59 -43 6 -107 15 -143
20 -112 17 -174 20 -190 9z"/>
<path d="M9820 7790 c0 -5 5 -10 10 -10 6 0 10 5 10 10 0 6 -4 10 -10 10 -5 0
-10 -4 -10 -10z"/>
<path d="M10881 7374 c0 -11 3 -14 6 -6 3 7 2 16 -1 19 -3 4 -6 -2 -5 -13z"/>
<path d="M12147 7242 c3 -12 -4 -22 -21 -30 -19 -9 -26 -19 -26 -41 0 -37 16
-48 40 -26 27 24 35 115 10 115 -5 0 -6 -8 -3 -18z"/>
<path d="M11511 7123 c1 -48 3 -53 9 -28 11 45 11 85 0 85 -6 0 -9 -25 -9 -57z"/>
<path d="M11618 7149 c-22 -37 -23 -49 -4 -49 12 0 36 47 36 71 0 18 -16 8
-32 -22z"/>
<path d="M12056 7128 c-17 -24 -13 -40 9 -31 9 3 15 -1 15 -8 1 -10 4 -8 11 3
7 12 6 24 -1 38 -13 25 -15 25 -34 -2z"/>
<path d="M9130 7075 c-8 -10 -21 -13 -34 -9 -12 3 -29 8 -38 10 -10 3 -18 1
-18 -5 0 -6 21 -16 46 -22 47 -12 67 -35 44 -49 -11 -7 -11 -14 -2 -35 14 -30
15 -90 2 -120 -10 -24 -12 -13 -11 65 1 54 1 55 -16 34 -10 -12 -23 -29 -28
-39 -6 -10 -23 -17 -38 -17 -20 0 -27 -6 -27 -19 0 -11 -5 -18 -11 -16 -12 2
-24 -27 -34 -85 -4 -25 -11 -38 -22 -38 -13 0 -15 -13 -10 -91 5 -95 15 -114
50 -103 42 13 75 -24 47 -52 -14 -14 5 -64 24 -64 8 0 22 12 31 28 21 33 83
75 101 68 8 -3 14 -1 14 5 0 14 30 44 58 58 21 11 24 19 22 69 -1 31 -2 62 -1
67 3 20 21 -21 21 -47 0 -21 6 -29 26 -34 16 -4 21 -9 14 -14 -8 -5 -7 -10 3
-19 22 -18 31 87 10 111 -13 14 -14 29 -6 83 l9 65 -29 0 c-17 0 -35 -8 -43
-17 -12 -17 -13 -17 -20 0 -4 10 -1 36 6 58 11 33 11 41 -2 56 -9 10 -23 34
-33 53 -18 36 -62 79 -81 80 -6 0 -17 -7 -24 -15z"/>
<path d="M11426 7081 c-4 -7 -5 -15 -2 -18 9 -9 19 4 14 18 -4 11 -6 11 -12 0z"/>
<path d="M7250 7051 c-5 -11 -10 -28 -9 -38 0 -10 3 -13 6 -5 2 6 11 12 19 12
8 0 14 10 14 25 0 30 -15 33 -30 6z"/>
<path d="M9333 7004 c-18 -9 -33 -20 -33 -25 0 -11 49 -24 57 -15 3 3 14 -12
24 -35 10 -22 23 -38 29 -34 16 10 11 51 -10 78 -11 14 -20 30 -20 36 0 15 -9
14 -47 -5z"/>
<path d="M11520 7005 c-8 -10 -10 -30 -5 -62 l7 -48 14 40 c24 69 15 107 -16
70z"/>
<path d="M11840 6947 c0 -15 -11 -37 -27 -53 -26 -26 -26 -28 -8 -35 30 -12
35 -10 35 8 0 9 5 32 12 50 9 26 9 36 0 45 -9 9 -12 6 -12 -15z"/>
<path d="M9310 6930 c0 -5 5 -10 10 -10 6 0 10 5 10 10 0 6 -4 10 -10 10 -5 0
-10 -4 -10 -10z"/>
<path d="M9400 6745 c0 -8 5 -15 10 -15 6 0 10 7 10 15 0 8 -4 15 -10 15 -5 0
-10 -7 -10 -15z"/>
<path d="M10800 6500 c0 -11 5 -20 10 -20 6 0 10 -8 10 -18 0 -14 8 -19 30
-19 34 0 38 15 14 52 -21 31 -64 35 -64 5z"/>
<path d="M10720 6457 c0 -27 22 -56 43 -57 4 0 7 17 7 39 0 33 -3 39 -25 43
-22 5 -25 2 -25 -25z"/>
<path d="M9244 6025 c-8 -43 1 -55 23 -32 13 13 14 19 4 31 -7 8 -10 20 -6 26
3 5 2 10 -4 10 -6 0 -13 -16 -17 -35z"/>
<path d="M8016 6021 c-3 -5 1 -14 9 -21 12 -10 18 -10 30 0 18 15 11 30 -15
30 -10 0 -21 -4 -24 -9z"/>
<path d="M9100 6020 c0 -5 5 -10 10 -10 6 0 10 5 10 10 0 6 -4 10 -10 10 -5 0
-10 -4 -10 -10z"/>
<path d="M8960 5994 c0 -9 5 -14 12 -12 18 6 21 28 4 28 -9 0 -16 -7 -16 -16z"/>
<path d="M7200 5695 c0 -8 4 -15 9 -15 5 0 11 7 15 15 3 9 0 15 -9 15 -8 0
-15 -7 -15 -15z"/>
<path d="M7448 5413 c7 -3 16 -2 19 1 4 3 -2 6 -13 5 -11 0 -14 -3 -6 -6z"/>
<path d="M6060 4857 c-19 -12 -46 -33 -59 -47 -22 -24 -23 -30 -16 -115 4 -57
13 -99 23 -116 9 -14 31 -47 47 -73 17 -26 38 -60 47 -74 10 -15 23 -36 30
-47 7 -11 18 -24 24 -30 21 -20 64 -84 64 -95 0 -13 49 -60 63 -60 13 0 3 114
-15 165 -8 22 -19 39 -25 38 -12 -3 -46 40 -69 83 -22 42 -27 120 -10 147 9
13 18 47 20 75 l4 52 -38 -6 c-66 -11 -62 35 6 75 30 18 34 24 24 36 -18 21
-79 17 -120 -8z"/>
<path d="M12330 4860 c8 -5 11 -10 7 -10 -14 0 45 -70 59 -70 8 0 14 -8 14
-17 0 -26 58 -123 73 -123 23 0 37 23 37 61 0 33 -5 41 -41 66 -22 15 -51 38
-64 51 -13 12 -28 22 -33 22 -6 0 -12 7 -16 15 -3 8 -16 15 -28 15 -19 0 -20
-2 -8 -10z"/>
<path d="M7070 4275 c0 -14 8 -29 21 -35 25 -14 25 -14 34 28 6 31 5 32 -24
32 -26 0 -31 -4 -31 -25z"/>
</g>
</svg>
